<?xml version="1.0" encoding="UTF-8"?>
<svg id="Layer_3" data-name="Layer 3" xmlns="http://www.w3.org/2000/svg" width="3.98in" height="4.57in" viewBox="0 0 286.33 328.96">
  <defs>
    <style>
      .cls-1 {
        fill: none;
      }

      .cls-2 {
        fill: #fff;
      }
    </style>
  </defs>
  <path class="cls-2" d="M170.45,181.56c-8.45-2.28-15.91-6.57-22.02-12.75-7.32-7.41-11.94-16.83-13.59-27.5-2.44-.58-4.02-1.07-4.02-1.07l-3.29,53.18s-11.14-1.88-20.33-14.68c-7.53,9.04-22.96,22.59-29.74,22.21-6.78-.38-21.84-11.1-21.84-11.1-1.88,17.5,3.76,42.35,8.66,45.36,4.89,3.01,52.71,29.36,54.59,35.76l-.38,39.53,11.29-1.88,3.01-13.18c27.11-3.76,65.88-37.27,68.14-44.05,2.26-6.78,3.76-35.01,3.76-44.8,0-6.91-21.57-18.7-34.26-25.03Zm-40.47,55.96c-9.79,.16-8.27,11.04-3.92,13.86-10.19-.59-26.11-15.93-26.11-15.93,11.31-3.43,14.45-5.32,21.85-6.62,3.88-.68,4.36,1.58,7.08,1.58,2.26,0,2.93-1.58,6.63-1.58s19.26,6.57,24.49,6.62c0,0-18.35,2.06-30.02,2.06Z"/>
  <path class="cls-2" d="M116.05,124.65c-.61-6.54-2.9-12.32-6.29-17.23l-33.54,60.46c2.71-.06,5.46-.4,8.21-1.06,18.47-4.42,33.49-22.02,31.62-42.16Z"/>
  <path id="right_eye" data-name="right eye" class="cls-1" d="M219.21,100.36c-1.47-1.52-14.76-14.87-34.82-13.36-18.48,1.38-34.32,14.74-39.53,32.19-.42,1.41-7.26,25.85,9.98,43.29,17.06,17.27,41.26,11.02,43.67,10.35,2.93-.81,23.61-6.92,30.87-27.86,5.54-15.97,.74-33.29-10.16-44.61Z"/>
  <g>
    <path class="cls-2" d="M200.83,320.9s-.02,.06,0,.06c.07,0,.51-.4,1.24-1.14-.74,.59-1.17,.96-1.23,1.09Z"/>
    <path class="cls-2" d="M262.94,271.96c4.89-7.91,15.39-30.12,15.39-41.04s-20.28-96.38-24.05-105.79c-3.76-9.41-13.55-36.89-19.2-44.42,0,0,1.51-7.15,4.14-7.15s13.55,7.53,15.44,13.18c-5.27-20.71-30.12-41.79-30.12-41.79,0,0,4.14,6.02,4.14,11.67,0,0-.75,4.89-7.91,6.02,0,0-73.96-47.81-86.07-47.81-.05,0-.09,0-.14,0-17.32,.56-117.03,101.27-122.35,109.93-5.32,8.66-4.89,60.61-2.64,68.52,2.26,7.91,16.94,48.56,16.94,48.56,0,0-6.02-41.41-5.65-51.2s6.4-40.66,12.05-50.07c5.65-9.41,89.6-93.74,98.26-95.62,.25-.05,.54-.08,.86-.08,10.76,0,59.65,29.76,68.78,40.36,9.41,10.92,27.11,38.4,30.87,49.32,3.76,10.92,13.55,41.04,12.8,58.35-.75,17.32-4.52,69.65-11.67,85.84-6.1,13.81-25.63,35.84-30.77,41.08,8.37-6.64,56.39-40.59,60.89-47.86Z"/>
  </g>
  <path class="cls-2" d="M227.89,148.65c-1.15-3.73-2.41-7.57-3.76-11.49-1.21-3.51-4.21-9.21-7.97-15.55l-27.09,52.74c5-.35,8.57-1.27,9.42-1.51,2.75-.76,21.15-6.19,29.39-24.18Z"/>
  <path class="cls-2" d="M191.11,87.05c-1.19-.1-2.39-.17-3.64-.17-1.01,0-2.04,.04-3.09,.12-5.14,.39-10.08,1.7-14.64,3.77l-25.76,50.7c1.23,6.55,4.06,13.64,9.84,19.93l37.93-73.81c-.21-.17-.41-.35-.63-.53Z"/>
  <g>
    <path class="cls-2" d="M81.37,89.5c-.93-.17-1.85-.32-2.77-.42-13.66-1.54-30.44,3.65-39.34,17.88-.48,.77-8.83,14.64-4.28,30.87,6.65-8.1,26.42-28.62,46.39-48.33Z"/>
    <path class="cls-2" d="M39.78,144.69c-.33,.56-.68,1.24-1.02,2.01,2.12,3.62,4.83,6.95,8,9.84l30.68-51.84c-20.54,20.6-35.69,36.86-37.66,40Z"/>
  </g>
</svg>