<?xml version="1.0" encoding="UTF-8"?>
<svg id="Layer_3" data-name="Layer 3" xmlns="http://www.w3.org/2000/svg" width="3.98in" height="4.57in" xmlns:xlink="http://www.w3.org/1999/xlink" viewBox="0 0 286.33 328.96">
  <defs>
    <style>
      .cls-1 {
        fill: none;
      }

      .cls-2 {
        clip-path: url(#clippath);
      }

      .cls-3 {
        fill: #fff;
      }

      .cls-4 {
        fill: #231f20;
      }
    </style>
    <clipPath id="clippath">
      <path id="right_eye-3" data-name="right eye" class="cls-1" d="M219.21,100.36c-1.47-1.52-14.76-14.87-34.82-13.36-18.48,1.38-34.32,14.74-39.53,32.19-.42,1.41-7.26,25.85,9.98,43.29,17.06,17.27,41.26,11.02,43.67,10.35,2.93-.81,23.61-6.92,30.87-27.86,5.54-15.97,.74-33.29-10.16-44.61Z"/>
    </clipPath>
  </defs>
  <g id="spooky">
    <path id="white_mask" data-name="white mask" class="cls-3" d="M127.53,193.41s-11.14-1.88-20.33-14.68c-7.53,9.04-22.96,22.59-29.74,22.21s-21.84-11.1-21.84-11.1c-1.88,17.5,3.76,42.35,8.66,45.36s52.71,29.36,54.59,35.76l-.38,39.53,11.29-1.88,3.01-13.18c27.11-3.76,65.88-37.27,68.14-44.05s3.76-35.01,3.76-44.8-43.29-29.36-43.29-29.36l.43-17.44s-6.58-16.57-14.58-16.73-16.44-2.82-16.44-2.82l-3.29,53.18Z"/>
    <path id="left_eye" data-name="left eye" class="cls-3" d="M39.25,106.96c8.9-14.23,25.68-19.43,39.34-17.88,17.03,1.92,35.55,15.04,37.46,35.58,1.87,20.15-13.15,37.75-31.62,42.16-21.31,5.09-42.34-8.53-48.75-26.73-6.06-17.19,3.07-32.32,3.58-33.13Z"/>
    <polygon id="left_shine" data-name="left shine" class="cls-4" points="88.57 85.88 42.45 163.81 72.01 175.48 113.98 99.81 88.57 85.88"/>
    <g id="right_eye" data-name="right eye">
      <g id="right_eye-2" data-name="right eye">
        <path class="cls-3" d="M185.31,178.97c-9.35,0-22.79-2.31-33.68-13.33-19.26-19.49-11.43-46.6-11.08-47.75,5.87-19.65,23.35-33.88,43.5-35.38,1.16-.09,2.33-.13,3.48-.13,19.62,0,32.53,12.38,34.92,14.86,12.61,13.09,17,32.41,11.17,49.21-7.79,22.46-29.62,29.53-33.92,30.72-1.53,.42-7.09,1.81-14.39,1.81h0Z"/>
        <path class="cls-4" d="M187.52,86.88c18.3,0,30.29,12.04,31.68,13.48,10.9,11.32,15.7,28.64,10.16,44.61-7.26,20.94-27.95,27.05-30.87,27.86-1.05,.29-6.25,1.64-13.19,1.64-8.97,0-20.86-2.26-30.48-12-17.24-17.45-10.4-41.89-9.98-43.29,5.21-17.45,21.05-30.8,39.53-32.19,1.07-.08,2.11-.12,3.14-.12m0-9c-1.26,0-2.55,.05-3.81,.14-22,1.65-41.08,17.15-47.48,38.59-.41,1.39-2.46,8.8-2,18.62,.61,13.18,5.52,24.79,14.2,33.57,9.48,9.6,22.24,14.67,36.88,14.67,7.86,0,13.92-1.51,15.59-1.97,3.17-.88,9.5-3.02,16.36-7.54,9.82-6.47,16.95-15.48,20.61-26.05,6.37-18.38,1.59-39.5-12.19-53.8-2.61-2.71-16.73-16.24-38.16-16.24h0Z"/>
      </g>
      <g id="right_eye_shine" data-name="right eye shine">
        <g class="cls-2">
          <g id="right_eye_shine-2" data-name="right eye shine">
            <polygon id="right_shine_big_" data-name="right shine (big)" class="cls-4" points="197.56 76.27 149.94 168.95 184.53 183.18 230.12 94.43 197.56 76.27"/>
            <path id="right_shine_small_" data-name="right shine (small)" class="cls-4" d="M172.9,84.55l-35.39,69.65s-4.89-33.69-4.14-34.82,24.66-34.82,24.66-34.82h14.87Z"/>
          </g>
        </g>
      </g>
    </g>
    <g id="hood_light" data-name="hood light">
      <path class="cls-3" d="M196.24,321.17l1.01-2.05c.41-.83,1-1.37,2.12-2.27,5.94-6.1,24.19-27.03,29.8-39.72,6.42-14.54,10.41-63.13,11.33-84.39,.71-16.33-8.56-45.22-12.58-56.88-3.56-10.31-20.99-37.42-30.12-48.01-9.1-10.55-56.95-38.92-65.73-38.98-9.97,4.33-90.63,85.29-95.72,93.76-5.12,8.54-11.1,38.42-11.48,48.17-.3,7.73,3.95,39.05,5.61,50.47l5.68,39.04-13.4-37.1c-.6-1.67-14.76-40.88-17.03-48.82-2.32-8.13-3.09-61.67,3.07-71.71,3.29-5.36,31.69-34.49,57.33-58.81C121.6,11.25,131.26,10.94,134.44,10.83h.27c12.23,0,71.62,37.74,86.84,47.55,2.16-.65,2.89-1.76,3.12-2.28-.22-3.47-2.51-7.56-3.43-8.9l-16.61-24.39,22.49,19.08c1.05,.89,25.88,22.16,31.41,43.85l-7.67,2.25c-1.07-3.22-7.55-8.24-10.75-9.93-.24,.53-.48,1.2-.7,1.9,4.34,6.84,9.9,21.02,15.7,36.22,1.15,3.01,2.14,5.6,2.88,7.47,3.51,8.77,24.34,95.24,24.34,107.27s-11.28,35.54-15.99,43.14c-3.46,5.58-24.16,21.06-48.84,39.22-5.88,4.33-10.57,7.78-12.77,9.51-1.24,1.26-2.2,2.16-3.9,2.16h-2.23s-2.36-3.8-2.36-3.8Z"/>
      <path class="cls-4" d="M134.71,14.83c12.11,0,86.07,47.81,86.07,47.81,7.15-1.13,7.91-6.02,7.91-6.02,0-5.65-4.14-11.67-4.14-11.67,0,0,24.85,21.08,30.12,41.79-1.88-5.65-12.8-13.18-15.44-13.18s-4.14,7.15-4.14,7.15c5.65,7.53,15.44,35.01,19.2,44.42,3.76,9.41,24.05,94.87,24.05,105.79s-10.5,33.13-15.39,41.04c-4.5,7.26-52.52,41.21-60.89,47.86,5.14-5.24,24.67-27.27,30.77-41.08,7.15-16.19,10.92-68.52,11.67-85.84,.75-17.32-9.04-47.44-12.8-58.35-3.76-10.92-21.46-38.4-30.87-49.32-9.14-10.6-58.03-40.36-68.78-40.36-.32,0-.61,.03-.86,.08-8.66,1.88-92.61,86.21-98.26,95.62-5.65,9.41-11.67,40.28-12.05,50.07-.38,9.79,5.65,51.2,5.65,51.2,0,0-14.68-40.66-16.94-48.56-2.26-7.91-2.68-59.86,2.64-68.52C17.54,116.1,117.24,15.39,134.57,14.83c.05,0,.09,0,.14,0m67.35,304.99c-.73,.74-1.16,1.14-1.24,1.14-.02,0-.01-.02,0-.06,.06-.12,.49-.5,1.23-1.09M183.93,0l34.02,49.48c.47,.7,1.04,1.73,1.54,2.84-7.04-4.48-19.79-12.5-33.1-20.45C144.48,6.83,137.88,6.83,134.71,6.83c-.14,0-.27,0-.4,0-4.52,.15-11.35,2.43-30.47,17.99-10.87,8.84-24.86,21.34-40.46,36.13C39.71,83.41,9.23,114.34,5.4,120.57c-1.18,1.92-4.78,7.78-5.34,38.58-.18,9.72-.03,29.82,1.83,36.32,2.31,8.08,16.51,47.41,17.11,49.08l26.8,74.2-11.35-78.07c-2.38-16.36-5.83-43.1-5.57-49.74,.34-8.94,6.26-38.5,10.91-46.26,2.2-3.5,20.87-23.42,45.14-47.46,26.46-26.2,42.88-40.82,47.97-44.2,3.71,.89,14.15,5.4,30.67,15.29,16.44,9.85,28.15,18.59,31.21,22.14,8.73,10.12,26,36.94,29.37,46.7,8.22,23.83,12.84,44.54,12.37,55.4-.88,20.18-4.86,69.07-11,82.95-5.05,11.44-22.12,31.45-28.83,38.37-1.11,.9-2.22,1.88-3.01,3.45-1.26,2.52-1.14,5.45,.34,7.84l2.34,3.79h4.47c3.19,0,5.15-1.72,6.58-3.17,2.25-1.75,7.01-5.26,12.48-9.28,30.98-22.8,46.34-34.65,49.87-40.34,4.25-6.87,16.59-31.34,16.59-45.25,0-12.39-20.64-98.81-24.62-108.76-.73-1.83-1.72-4.41-2.86-7.41-3.62-9.49-7.16-18.6-10.41-25.89l13.98-4.1c-5.83-22.92-31.6-44.99-32.69-45.91L183.93,0h0Z"/>
    </g>
    <path class="cls-4" d="M121.81,228.83c3.88-.68,4.36,1.58,7.08,1.58,2.26,0,2.93-1.58,6.63-1.58s19.26,6.57,24.49,6.62c0,0-18.35,2.06-30.02,2.06-9.79,.16-8.27,11.04-3.92,13.86-10.19-.59-26.11-15.93-26.11-15.93,11.31-3.43,14.45-5.32,21.85-6.62Z"/>
  </g>
</svg>