<?xml version="1.0" encoding="UTF-8"?><svg id="Layer_2" xmlns="http://www.w3.org/2000/svg" viewBox="0 0 396.49 185.76"><defs><style>.cls-1,.cls-2{fill:#231f20;}.cls-3{letter-spacing:0em;}.cls-4{font-size:72px;}.cls-5{font-size:48px;}.cls-2{font-family:ACaslonPro-Bold, 'Adobe Caslon Pro';font-weight:700;}.cls-6{letter-spacing:0em;}</style></defs><g><path class="cls-1" d="M154.61,65.71c.82,3.41,1.03,6.79,.72,9.96-4.73-2.13-5.37-4.16-7-7.27-1.64-3.11-3.19-10.07-1.43-16.57,3.56,3.42,6.36,8.23,7.71,13.88Z"/><path class="cls-1" d="M135.73,14.52C132.71,10.73,70.79-.97,61.75,.06,52.71,1.1,1.89,68.71,.2,79.55s7.91,56.26,14.68,65.03c6.78,8.77,71.15,32,79.06,31.48s52.52-39.23,52.52-39.23c0,0-62.68-16.52-66.63-22.19-3.95-5.68,39.53-90.84,39.53-90.84,10.13,5.29,14.47,8.98,19.58,14.48,0,0-.19-19.98-3.2-23.77Z"/><path class="cls-1" d="M138.93,38.28l-.16-5.29c6.42,4.03,9.95,11.19,11.08,18.27-3.2,9.56,1.09,19.77,4.65,21.82,6.02,3.48,13.93,3.83,13.93,3.83-1.13,8.35-6.4,14.26-6.4,14.26,4.52,12.52,4.52,35.96,4.52,35.96l-64.76,45.08,23.46-26.47,35.34-22c1.04-16.47-4.2-32.22-4.2-32.22,5.65-5.22,6.65-10.61,6.65-10.61-12.42-2.78-13.05-5.39-16.06-10.96-1.73-3.2-3.52-12.03-1.07-18.64-.72-5.22-3.47-8.95-6.96-13.04Z"/><path class="cls-1" d="M140.87,68.91c3.04,12.65-2.27,24.83-11.89,27.58-.2,.06-2.4,.65-2.6,.69-10.01,2.41-20.64-6.11-23.74-19.02-3.01-12.49,2.13-24.53,11.54-27.47,.31-.1,2.63-.72,2.96-.8,10.01-2.41,20.64,6.11,23.74,19.02Z"/></g><text class="cls-2" transform="translate(191.2 69.36)"><tspan class="cls-5"><tspan x="0" y="0">Repl</tspan><tspan class="cls-6" x="96.72" y="0">a</tspan><tspan class="cls-3" x="118.37" y="0">cing</tspan></tspan><tspan class="cls-4"><tspan x="0" y="66">Jane</tspan></tspan></text></svg>