<?xml version="1.0" encoding="UTF-8"?>
<svg id="Layer_3" data-name="Layer 3" xmlns="http://www.w3.org/2000/svg" width="3.65in" height="1.76in" viewBox="0 0 262.9 126.97">
  <defs>
    <style>
      .cls-1 {
        fill: #fff;
      }
    </style>
  </defs>
  <g>
    <path class="cls-1" d="M13.63,8.64c0-2.23,0-4.15-.03-4.97-.03-.99-.42-1.51-.84-1.51h-1.2c-.15,0-.18-.09-.18-.21v-.81c0-.15,.03-.21,.18-.21,.27,0,1.2,.09,4.49,.09,1.69,0,4.33-.09,5.57-.09,2.35,0,4.09,.84,5.33,1.99,1.08,.99,1.72,2.17,1.72,3.28,0,3.82-2.86,5.54-5.51,5.78v.21c.93,.3,1.42,.87,1.99,1.6,.39,.48,2.05,3.16,2.29,3.52,.18,.27,1.81,2.56,2.41,3.25,.36,.39,1.51,.63,2.2,.63,.21,0,.24,.12,.24,.24v.72c0,.18-.03,.27-.24,.27-.24,0-1.02-.09-3.34-.09-.87,0-1.99,.06-2.86,.09-.9-.69-2.77-4.18-3.28-5.21-1.02-2.05-2.26-4.27-3.7-4.27h-1.02v1.54c0,1.78,.09,5.15,.15,5.54,.06,.63,.3,1.17,.75,1.17h1.23c.21,0,.24,.09,.24,.24v.72c0,.21-.03,.27-.48,.27-.03,0-.78-.09-3.94-.09s-3.88,.09-4.21,.09c-.24,0-.24-.09-.24-.3v-.69c0-.15,0-.24,.15-.24h.9c.66,0,1.2-.21,1.2-.96,.06-2.98,.06-5.81,.06-8.67v-2.92Zm4.21,3.25c.57,.03,.93,.03,1.2,.03,3.97,0,4.91-3.79,4.91-5.21s-.48-2.71-1.14-3.37c-1.08-.96-2.44-1.32-3.34-1.32-.51,0-.9,.06-1.14,.27-.18,.12-.27,.45-.33,.81l-.15,8.79Z"/>
    <path class="cls-1" d="M39.96,10.81c1.38,0,2.71-.09,3.07-.18,.51-.12,.93-.39,1.38-.93,.33-.45,.69-1.29,.69-1.87,0-.21,.09-.27,.24-.27l.81,.09c.15,.03,.27,.06,.24,.24-.09,.51-.09,2.08-.09,3.13,0,1.35,.12,2.8,.18,3.43,.03,.18-.09,.21-.24,.24l-.72,.15c-.12,.03-.18-.03-.24-.24-.12-.48-.42-1.17-.6-1.54-.33-.57-1.05-.96-1.66-1.05-.81-.12-1.75-.18-3.07-.18v1.81c0,1.63,.15,4.55,.15,5.09,0,1.57,.33,2.11,.72,2.29,.45,.18,1.02,.27,2.53,.27,.51,0,1.78-.03,2.41-.09,.6-.06,1.5-.36,2.29-.99,.78-.63,2.47-2.5,3.07-3.22,.12-.12,.21-.15,.3-.09l.51,.3c.12,.06,.15,.15,.12,.24l-1.35,4.55c-.09,.27-.3,.45-.66,.45-.15,0-.81-.03-2.74-.06-1.96,0-5.15-.03-10.36-.03-1.11,0-1.96,.03-2.56,.03-.63,.03-1.02,.06-1.29,.06-.21,0-.27-.09-.27-.33v-.63c0-.18,.09-.27,.3-.27h.9c1.38,0,1.5-.21,1.5-1.26V9.84c0-2.5-.06-6.2-.09-6.5-.12-.96-.42-1.17-1.23-1.17h-1.17c-.12,0-.15-.09-.15-.3v-.72c0-.09,.03-.21,.21-.21,.66,0,1.72,.09,4.46,.09l10.57-.03c.48,0,1.05-.06,1.2-.06s.21,.06,.24,.15c.12,.42,1.11,4.55,1.23,4.85,.06,.15,.06,.21-.09,.3l-.48,.24c-.12,.06-.27,.03-.36-.12-.15-.24-2.86-2.95-3.55-3.37-.63-.39-1.48-.78-2.29-.81l-3.97-.12-.09,8.76Z"/>
    <path class="cls-1" d="M60.25,14.36c0,1.42,.03,5.51,.06,5.87,.06,.66,.36,.96,.84,.96h1.54c.21,0,.24,.09,.24,.21v.78c0,.15-.03,.24-.27,.24-.42,0-1.35-.09-4.88-.09-2.65,0-3.82,.09-4.15,.09-.21,0-.24-.09-.24-.21v-.81c0-.15,.03-.21,.18-.21h.78c1.02,0,1.23-.15,1.32-.9,.03-.3,.12-5,.12-8.49v-3.46c0-1.99-.03-5.15-.06-5.51-.06-.6-.36-.66-.96-.66h-1.42c-.15,0-.18-.06-.18-.24v-.78c0-.15,.03-.21,.18-.21,.33,0,1.42,.09,4.58,.09,.54,0,2.32-.09,3.31-.09,3.7,0,5.48,.3,7.23,1.66,1.26,.96,2.17,2.68,2.17,4.67,0,3.61-2.89,6.08-7.95,6.08-.93,0-1.63-.03-2.44-.09v1.11Zm0-2.29c.66,.15,1.35,.18,1.84,.18,.93,0,2.44-.96,3.1-2.02,.6-.93,.72-2.08,.72-3.19,0-4.15-3.01-5.03-4.25-5.03-.51,0-.87,.03-1.42,.15V12.07Z"/>
    <path class="cls-1" d="M79.91,12.92c0,.51,0,7.01,.09,8.22h1.72c1.42,0,2.77,0,4.4-.15,1.63-.15,3.67-3.76,4.12-4.88,.09-.18,.18-.27,.36-.18l.6,.24c.09,.06,.09,.09,.06,.27-.09,.21-1.29,5.18-1.48,5.99-.78-.06-9.45-.09-12.22-.09-2.98,0-4.06,.09-4.46,.09-.21,0-.24-.06-.24-.27v-.75c0-.15,.03-.21,.21-.21h.93c1.11,0,1.29-.42,1.29-.75,0-.57,.09-8.07,.09-9.9v-1.69c0-1.93-.06-5.12-.09-5.6-.06-.78-.21-1.08-.9-1.08h-1.11c-.18,0-.21-.15-.21-.3v-.72c0-.15,.03-.21,.21-.21,.33,0,1.42,.09,4.16,.09,3.52,0,4.79-.09,5.06-.09,.24,0,.27,.09,.27,.3v.69c0,.15-.06,.24-.3,.24h-1.42c-.93,0-1.05,.3-1.05,1.11,0,.39-.09,4.94-.09,7.04v2.59Z"/>
    <path class="cls-1" d="M97.27,14.09c-.24,.63-1.72,4.76-1.72,5.72,0,.66,.27,1.38,1.17,1.38h1.05c.3,0,.33,.12,.33,.24v.66c0,.24-.03,.33-.27,.33-.39,0-1.62-.09-4.09-.09-2.2,0-2.86,.09-3.28,.09-.18,0-.21-.18-.21-.39v-.57c0-.18,.03-.27,.21-.27h.78c.72,0,1.45-.42,2.05-1.32,.42-.63,2.56-5.87,3.55-8.52,.24-.6,2.68-7.07,2.95-7.89,.09-.3,.24-.69,.03-1.02-.09-.12-.21-.27-.21-.39,0-.09,.06-.21,.3-.27,.96-.21,2.92-.99,3.37-1.51,.15-.15,.24-.27,.39-.27,.18,0,.24,.18,.33,.51,.57,1.9,2.92,8.64,3.49,10.57,.69,2.35,2.65,7.95,3.07,8.76,.51,.99,1.29,1.35,1.75,1.35h1.02c.18,0,.21,.12,.21,.27v.57c0,.18-.03,.39-.27,.39-.57,0-1.2-.09-5.06-.09-2.5,0-3.55,.09-4.15,.09-.3,0-.33-.18-.33-.39v-.57c0-.15,.03-.27,.18-.27h.84c.81,0,1.08-.3,.9-1.08-.27-1.08-1.45-4.94-1.81-6.02h-6.59Zm6.32-1.2l-2.26-7.98c-.12-.45-.18-.66-.33-.66-.18,0-.27,.12-.36,.39-.15,.39-2.74,7.5-2.98,8.25h5.93Z"/>
    <path class="cls-1" d="M116.78,20.02c-2.23-1.99-3.28-5.45-3.28-8.04,0-3.1,.99-5.9,3.1-8.16,1.72-1.84,4.21-3.25,7.95-3.25,2.74,0,5,.69,6.05,1.26,.42,.21,.57,.18,.63-.03l.24-.75c.06-.18,.12-.18,.57-.18s.51,.06,.51,.48c0,.57,.54,5.69,.69,6.59,.03,.21,0,.36-.15,.39l-.66,.18c-.15,.06-.27-.06-.36-.33-.33-1.2-1.14-2.74-2.41-4.03-1.29-1.26-2.89-2.26-5.18-2.26-4.4,0-6.26,4-6.23,8.46,0,1.9,.54,5.6,2.68,7.86,1.96,2.02,3.67,2.26,4.7,2.26,3.43,0,5.99-1.57,7.1-3.22,.15-.24,.3-.36,.45-.24l.51,.45c.09,.06,.12,.18,0,.36-1.75,2.53-4.67,4.97-8.91,4.97-4,0-6.11-1.08-8.01-2.77Z"/>
    <path class="cls-1" d="M138.6,9.72c0-.72-.09-6.14-.12-6.53-.06-.72-.36-1.02-.99-1.02h-1.44c-.15,0-.24-.06-.24-.18v-.87c0-.12,.09-.18,.21-.18,.36,0,1.9,.09,4.85,.09s4.03-.09,4.46-.09c.15,0,.21,.09,.21,.27v.75c0,.15-.09,.21-.24,.21h-.87c-.75,0-1.2,.24-1.2,.78,0,.3-.09,6.95-.09,7.32v2.32c0,.3,.09,7.26,.09,7.53,0,.93,.45,1.08,1.02,1.08h1.23c.15,0,.24,.06,.24,.21v.84c0,.12-.09,.18-.27,.18-.36,0-1.57-.09-4.43-.09-3.16,0-4.46,.09-4.79,.09-.15,0-.24-.06-.24-.24v-.81c0-.12,.09-.18,.24-.18h.87c.6,0,1.23-.09,1.35-.81,.06-.45,.15-6.95,.15-8.55v-2.11Z"/>
    <path class="cls-1" d="M167.2,13.58c0-2.68-.03-4.15-.09-5.66-.03-1.17-.18-4.12-.27-4.58-.18-.75-.9-1.17-1.6-1.17h-.96c-.15,0-.18-.09-.18-.27v-.75c0-.15,.03-.21,.27-.21,.33,0,1.29,.09,3.52,.09,1.81,0,2.53-.09,2.86-.09,.27,0,.3,.06,.3,.24v.72c0,.15-.03,.27-.15,.27h-.84c-.51,0-.81,.51-.9,1.6-.21,2.02-.69,8.82-.69,12.79v5.15c0,.45-.03,.99-.45,.99-.45,0-.84-.15-1.17-.48-.51-.48-1.99-2.08-3.79-4.21l-5.15-6.11c-.51-.6-4.67-5.78-5.36-6.77h-.24v6.08c0,2.5,.27,6.2,.3,7.35,.06,1.75,.6,2.65,1.87,2.65h.75c.21,0,.24,.09,.24,.27v.72c0,.18-.03,.24-.24,.24-.3,0-2.11-.09-3.52-.09-.93,0-3.01,.09-3.31,.09-.12,0-.15-.06-.15-.27v-.78c0-.09,.03-.18,.18-.18h1.05c.66,0,1.14-.96,1.29-2.98,.03-.57,.27-5.39,.27-9.84v-2.71c0-1.78-1.08-3.46-2.59-3.49l-.75-.03c-.15,0-.18-.12-.18-.21v-.81c0-.12,.03-.18,.18-.18s.39,.03,.96,.03c.6,.03,1.57,.06,3.13,.06,1.02,0,1.93-.06,2.29-.06,.39,0,.63,.12,.87,.39l6.98,8.55,5.15,6.41h.12v-2.74Z"/>
    <path class="cls-1" d="M193.99,19.42c0,.42,.12,.72,.12,.96s-.18,.36-.48,.48c-2.44,1.23-5,1.93-8.82,1.93-3.13,0-6.65-.99-8.73-3.43-1.84-2.08-2.77-4.64-2.77-8.28,0-2.74,1.29-5.66,3.49-7.56,2.2-1.93,4.91-2.95,8.52-2.95,3.04,0,5.3,.84,6.29,1.48,.36,.21,.57,.15,.75-.09l.3-.48c.15-.21,.21-.3,.39-.3,.33,0,.42,.21,.42,.54l.45,6.2c.03,.36,0,.51-.12,.54l-.84,.18c-.18,.03-.27-.03-.36-.3-.48-1.48-1.45-3.4-2.74-4.58-1.17-1.11-2.71-1.87-4.76-1.87-1.63,0-3.13,.51-4.55,2.26-1.38,1.66-2.41,4.15-2.41,6.86,0,3.55,.99,6.65,2.62,8.28,1.42,1.42,2.56,2.05,4.61,2.05,1.57,0,2.41-.12,3.4-.6,.63-.3,.69-1.26,.69-2.83v-2.17c0-1.08-.3-1.38-1.05-1.38h-1.26c-.18,0-.21-.12-.21-.27v-.75c0-.12,.03-.21,.21-.21,.27,0,1.75,.09,4.46,.09s3.88-.09,4.12-.09,.27,.09,.27,.24v.75c0,.18-.03,.24-.21,.24h-.87c-.54,0-.93,.21-.93,1.08v3.97Z"/>
  </g>
  <g>
    <path class="cls-1" d="M21.18,65.21c0-1.59,0-19.2-.3-23.27-.6-2.19-.99-3.38-4.38-3.38h-3.38c-.4,0-.7-.1-.7-.5v-2.88c0-.5,.1-.7,.7-.7,1.09,0,4.77,.3,15.71,.3,9.75,0,13.23-.3,14.72-.3,.6,0,.8,.2,.8,.8v2.49c0,.6-.2,.8-.8,.8h-3.48c-2.69,0-3.58,.8-3.68,2.69-.1,1.59-.3,14.32-.3,26.36v4.58c0,12.63-.4,22.38-.4,24.67,0,5.27-.7,9.55-3.98,15.12-4.48,7.56-12.73,15.02-24.27,15.02-2.69,0-7.46-1.79-7.46-7.16,0-3.38,2.49-6.37,5.97-6.37,4.97,0,7.16,4.08,8.95,8.06,2.09,0,4.28-2.39,5.27-5.97,2.09-7.26,.99-36.1,.99-43.36v-6.96Z"/>
    <path class="cls-1" d="M62.96,77.94c-.8,2.09-5.67,15.71-5.67,18.9,0,2.19,.9,4.58,3.88,4.58h3.48c.99,0,1.09,.4,1.09,.8v2.19c0,.8-.1,1.09-.89,1.09-1.29,0-5.37-.3-13.53-.3-7.26,0-9.45,.3-10.84,.3-.6,0-.7-.6-.7-1.29v-1.89c0-.6,.1-.9,.7-.9h2.59c2.39,0,4.77-1.39,6.76-4.38,1.39-2.09,8.45-19.39,11.74-28.15,.79-1.99,8.85-23.37,9.75-26.06,.3-.99,.8-2.29,.1-3.38-.3-.4-.7-.9-.7-1.29,0-.3,.2-.7,1-.9,3.18-.7,9.65-3.28,11.14-4.97,.5-.5,.8-.9,1.29-.9,.6,0,.8,.6,1.09,1.69,1.89,6.27,9.65,28.54,11.54,34.91,2.29,7.76,8.75,26.26,10.14,28.94,1.69,3.28,4.28,4.48,5.77,4.48h3.38c.6,0,.7,.4,.7,.9v1.89c0,.6-.1,1.29-.9,1.29-1.89,0-3.98-.3-16.71-.3-8.25,0-11.74,.3-13.73,.3-.99,0-1.09-.6-1.09-1.29v-1.89c0-.5,.1-.9,.6-.9h2.79c2.68,0,3.58-.99,2.98-3.58-.9-3.58-4.77-16.31-5.97-19.89h-21.78Zm20.89-3.98l-7.46-26.36c-.4-1.49-.6-2.19-1.09-2.19-.6,0-.89,.4-1.19,1.29-.5,1.29-9.05,24.76-9.85,27.25h19.59Z"/>
    <path class="cls-1" d="M183.1,76.25c0-8.85-.1-13.73-.3-18.7-.1-3.88-.6-13.63-.9-15.12-.6-2.49-2.98-3.88-5.27-3.88h-3.18c-.5,0-.6-.3-.6-.9v-2.49c0-.5,.1-.7,.9-.7,1.09,0,4.28,.3,11.64,.3,5.97,0,8.35-.3,9.45-.3,.89,0,.99,.2,.99,.8v2.39c0,.5-.1,.9-.5,.9h-2.79c-1.69,0-2.68,1.69-2.98,5.27-.7,6.66-2.29,29.14-2.29,42.27v17.01c0,1.49-.1,3.28-1.49,3.28-1.49,0-2.79-.5-3.88-1.59-1.69-1.59-6.56-6.86-12.53-13.92l-17.01-20.19c-1.69-1.99-15.42-19.1-17.7-22.38h-.79v20.09c0,8.25,.89,20.49,.99,24.27,.2,5.77,1.99,8.75,6.17,8.75h2.49c.7,0,.8,.3,.8,.9v2.39c0,.6-.1,.8-.8,.8-.99,0-6.96-.3-11.64-.3-3.08,0-9.95,.3-10.94,.3-.4,0-.5-.2-.5-.9v-2.59c0-.3,.1-.6,.6-.6h3.48c2.19,0,3.78-3.18,4.28-9.85,.1-1.89,.89-17.8,.89-32.52v-8.95c0-5.87-3.58-11.44-8.55-11.54l-2.49-.1c-.5,0-.6-.4-.6-.7v-2.69c0-.4,.1-.6,.6-.6s1.29,.1,3.18,.1c1.99,.1,5.17,.2,10.34,.2,3.38,0,6.37-.2,7.56-.2,1.29,0,2.09,.4,2.88,1.29l23.07,28.25,17.01,21.18h.4v-9.05Z"/>
    <path class="cls-1" d="M222.88,67.1c4.58,0,8.95-.3,10.14-.6,1.69-.4,3.08-1.29,4.58-3.08,1.09-1.49,2.29-4.28,2.29-6.17,0-.7,.3-.9,.8-.9l2.69,.3c.5,.1,.9,.2,.8,.8-.3,1.69-.3,6.86-.3,10.34,0,4.48,.4,9.25,.6,11.34,.1,.6-.3,.7-.79,.8l-2.39,.5c-.4,.1-.6-.1-.79-.8-.4-1.59-1.39-3.88-1.99-5.07-1.09-1.89-3.48-3.18-5.47-3.48-2.69-.4-5.77-.6-10.14-.6v5.97c0,5.37,.5,15.02,.5,16.81,0,5.17,1.09,6.96,2.39,7.56,1.49,.6,3.38,.9,8.35,.9,1.69,0,5.87-.1,7.96-.3,1.99-.2,4.97-1.19,7.56-3.28,2.59-2.09,8.16-8.25,10.14-10.64,.4-.4,.7-.5,1-.3l1.69,.99c.4,.2,.5,.5,.4,.8l-4.48,15.02c-.3,.9-.99,1.49-2.19,1.49-.5,0-2.69-.1-9.05-.2-6.46,0-17.01-.1-34.21-.1-3.68,0-6.46,.1-8.45,.1-2.09,.1-3.38,.2-4.28,.2-.7,0-.9-.3-.9-1.09v-2.09c0-.6,.3-.9,1-.9h2.98c4.58,0,4.97-.7,4.97-4.18V63.91c0-8.25-.2-20.49-.3-21.48-.4-3.18-1.39-3.88-4.08-3.88h-3.88c-.4,0-.5-.3-.5-.99v-2.39c0-.3,.1-.7,.7-.7,2.19,0,5.67,.3,14.72,.3l34.91-.1c1.59,0,3.48-.2,3.98-.2s.7,.2,.79,.5c.4,1.39,3.68,15.02,4.08,16.01,.2,.5,.2,.7-.3,.99l-1.59,.8c-.4,.2-.9,.1-1.19-.4-.5-.8-9.45-9.75-11.74-11.14-2.09-1.29-4.87-2.59-7.56-2.69l-13.13-.4-.3,28.94Z"/>
  </g>
</svg>