<?xml version="1.0" encoding="UTF-8"?>
<svg id="Layer_1" data-name="Layer 1" xmlns="http://www.w3.org/2000/svg" width=".69in" height=".69in" viewBox="0 0 49.69 49.69">
  <defs>
    <style>
      .cls-1 {
        fill: #fff;
      }
    </style>
  </defs>
  <path class="cls-1" d="M37.91,4.22c4.29,0,7.78,3.49,7.78,7.78v26.13c0,4.29-3.49,7.78-7.78,7.78H11.78c-4.29,0-7.78-3.49-7.78-7.78V12c0-4.29,3.49-7.78,7.78-7.78h26.13m0-4H11.78C5.27,.22,0,5.5,0,12v26.13c0,6.51,5.27,11.78,11.78,11.78h26.13c6.51,0,11.78-5.27,11.78-11.78V12C49.69,5.5,44.42,.22,37.91,.22h0Z"/>
  <rect class="cls-1" x="1.59" y="16.67" width="13.95" height="4"/>
  <rect class="cls-1" x="34.91" y="16.67" width="13.95" height="4"/>
  <path class="cls-1" d="M24.85,38.62c-7.47,0-13.55-6.08-13.55-13.55s6.08-13.55,13.55-13.55,13.55,6.08,13.55,13.55-6.08,13.55-13.55,13.55Zm0-23.11c-5.27,0-9.55,4.29-9.55,9.55s4.29,9.55,9.55,9.55,9.55-4.29,9.55-9.55-4.29-9.55-9.55-9.55Z"/>
  <circle class="cls-1" cx="38.22" cy="11.22" r="1.82"/>
</svg>