<?xml version="1.0" encoding="UTF-8"?>
<svg id="Layer_1" data-name="Layer 1" xmlns="http://www.w3.org/2000/svg" width=".69in" height=".69in" viewBox="0 0 49.69 49.69">
  <defs>
    <style>
      .cls-1 {
        fill: #fff;
      }
    </style>
  </defs>
  <path class="cls-1" d="M37.91,0H11.78C5.27,0,0,5.27,0,11.78v26.13C0,44.42,5.27,49.69,11.78,49.69h13.72c0-5.96,0-11.92,0-17.88,0-.4-.03-.43-.43-.43-1.82,0-3.64,0-5.46,0-.42,0-.44-.02-.44-.45,0-2.11,0-4.22,0-6.33,0-.42,.03-.44,.45-.44,1.79,0,3.58,0,5.37,0,.49,0,.51-.02,.51-.51,0-1.8-.01-3.6,0-5.4,.02-1.49,.31-2.94,.94-4.3,1.06-2.27,2.85-3.69,5.24-4.38,1.38-.39,2.79-.45,4.21-.4,1.13,.04,2.27,.06,3.4,.15,.28,.02,.56,.05,.84,.07,.21,.02,.3,.12,.3,.33,0,1.95,0,3.9,0,5.85,0,.26-.13,.32-.36,.32-1.16,0-2.31,0-3.47,0-.55,0-1.1,.06-1.64,.2-1.03,.28-1.66,.94-1.87,1.99-.07,.38-.13,.75-.13,1.14,0,1.5,0,2.99,0,4.49,0,.4,.03,.43,.43,.43,2.09,0,4.18,0,6.27,0,.47,0,.48,0,.42,.48-.27,2.1-.54,4.21-.81,6.31-.05,.41-.08,.43-.49,.43-1.79,0-3.58,0-5.36,0-.44,0-.46,.02-.46,.46,0,5.93,0,11.86,0,17.78l-7.48,.06h12.42c6.51,0,11.78-5.27,11.78-11.78V11.78C49.69,5.27,44.42,0,37.91,0Z"/>
</svg>