<?xml version="1.0" encoding="UTF-8"?>
<svg id="Layer_1" data-name="Layer 1" xmlns="http://www.w3.org/2000/svg" width=".79in" height=".65in" viewBox="0 0 57.05 46.97">
  <defs>
    <style>
      .cls-1 {
        fill: #fff;
      }
    </style>
  </defs>
  <g id="qfmPBl.tif">
    <path class="cls-1" d="M10.78,28.61c-4.59-2-7.61-5.07-8.43-10.03-.08-.51,.02-1.05,.04-1.58,.44,.12,.88,.23,1.32,.35,1.06,.3,2.08,.82,3.46,.58C3.53,14.84,1.77,11.13,2.45,6.48c.2-1.34,.49-2.68,1.39-3.77,.82,.76,1.66,1.49,2.44,2.27,5.63,5.63,12.43,8.75,20.33,9.6,1.14,.12,1.48-.14,1.38-1.34-.41-4.75,1.28-8.61,5.36-11.18,3.89-2.45,8.36-2.95,11.92-.2,3.54,2.74,6.18,1.24,9.22-.11,.27-.12,.56-.2,.85-.3-.07,.32-.08,.67-.22,.96-.92,1.98-2.27,3.61-4.39,5.02,2.34-.08,4.13-.8,6.32-1.54-1.36,2.22-2.95,3.76-4.68,5.15-.68,.54-.97,1.11-.98,1.97-.24,18.14-12.12,31.58-30.11,33.72-7.4,.88-14.4-.82-21.29-5.05,3.85,.23,7.1-.05,10.26-1.14,2.08-.72,4.04-1.65,5.83-2.95,.27-.19,.48-.47,.72-.7-.32-.11-.63-.27-.96-.32-4.13-.64-7.09-2.86-8.95-6.57-.46-.92-.58-1.42,.8-1.25,1.01,.12,2.06-.09,3.09-.15Z"/>
  </g>
</svg>